<?xml version="1.0" standalone="no"?>
<!DOCTYPE svg PUBLIC "-//W3C//DTD SVG 20010904//EN"
 "http://www.w3.org/TR/2001/REC-SVG-20010904/DTD/svg10.dtd">
<svg version="1.0" xmlns="http://www.w3.org/2000/svg"
 width="700.000000pt" height="700.000000pt" viewBox="0 0 700.000000 700.000000"
 preserveAspectRatio="xMidYMid meet">
<metadata>
Created by potrace 1.14, written by Peter Selinger 2001-2017
</metadata>
<g transform="translate(0.000000,700.000000) scale(0.100000,-0.100000)"
fill="#000000" stroke="none">
<path d="M1487 6986 c-59 -22 -103 -63 -139 -131 l-22 -40 0 -3311 0 -3311 27
-56 c29 -59 77 -102 136 -123 29 -11 383 -13 1811 -11 1677 2 1778 3 1834 21
268 81 457 279 520 546 14 58 15 408 13 3160 -2 2993 -3 3096 -21 3132 -23 47
-68 91 -115 115 -34 17 -133 18 -2021 20 -1643 2 -1991 0 -2023 -11z"/>
</g>
</svg>
